# xmcd
#
# Track frame offsets:
#	150
#	18900
#	44363
#	68418
#	87585
#	112228
#	129830
#	152465
#	174110
#	197840
#	216490
#	239185
#
# Disc length: 3480 seconds
#
# Revision: 1
# Processed by: cddbd v1.5.2PL0 Copyright (c) Steve Scherf et al.
# Submitted via: EZCDAudioConverter 8.0.2.1
#
DISCID=a30d960c
DTITLE=Khánh Ly - st. Trầm Tử Thiêng. Kinh Khổ
DYEAR=1989
DGENRE=
TTITLE0=Kinh Khổ
TTITLE1=Hối tiếc
TTITLE2=Mười năm yêu em
TTITLE3=Tưởng không còn nhìn thấy em
TTITLE4=Tình cuối tình đầu
TTITLE5=Chọt nghĩ về hai nơi
TTITLE6=Mộng sầu
TTITLE7=Một thời uyên ương
TTITLE8=Tưởng niệm
TTITLE9=Một thời để nhớ
TTITLE10=Gởi em hành lý
TTITLE11=Đêm nhớ về Sài Gòn
EXTD=
EXTT0=
EXTT1=
EXTT2=
EXTT3=
EXTT4=
EXTT5=
EXTT6=
EXTT7=
EXTT8=
EXTT9=
EXTT10=
EXTT11=
PLAYORDER=
